{"title":"VA-XMiX_Dance_Series_122-(XD-122CD)-2009-WAVPACK","uid":7352955,"size":559183587,"categoryP":"audio","categoryS":"other","magnet":"?xt=urn:btih:86781db0fb62704f0713aa03fe20aecc539cb866&amp;dn=VA-XMiX_Dance_Series_122-%28XD-122CD%29-2009-WAVPACK&amp;tr=udp%3A%2F%2Ftracker.openbittorrent.com%3A80&amp;tr=udp%3A%2F%2Fopen.demonii.com%3A1337&amp;tr=udp%3A%2F%2Ftracker.coppersurfer.tk%3A6969&amp;tr=udp%3A%2F%2Fexodus.desync.com%3A6969","seeders":1,"leechers":0,"uploader":null,"files":-1,"time":1339669978,"description":" 01. Plasco - Stay (Extended Version)\t 06:43 \n 02. Jordin Sparks - Battlefield (Jason Nevins Mixshow)\t 05:52 \n 03. Pussycat Dolls - Hush Hush (With Mash-Up) (Dave Aude Extended Remix) 05:25 \n 04. Pitbull - Hotel Room Service (Xmix Remix)\t 05:24 \n 05. Paradiso Girls &amp; Lil Jon - Patron Tequila (Dave Aude Remix)\t 06:41 \n 06. Nicola Fasano Vs. Pat-Rich - 76 Ocean Drive (Apace Vocal Mix)\t 05:46 \n 07. Floorphilla &amp; Majuri - Star (Masstaff Extended Mix)\t 04:58 \n 08. Britney Spears - Radar (Manhattan Clique UHF Mix)\t 06:09 \n 09. Cascada - Evacuate The Dance Floor (Wideboys Remix)\t 06:07 \n 10. BeyoncÃƒÂ© - Sweet Dreams (Groove Police Club Remix)\t 06:06 \n 11. Sophia May - Another Day (Sunfreakz Club Mix)\t 05:58 \n 12. Michael Jackson - Billie Jean (Xmix Remix)\t 06:43\n\n\n[AccurateRip ID: 001fd37b-01286d25-9b10d60c] found.\nTrack   [  CRC   |   V2   ] Status\n 01     [fcfc4566|2fec317a] (1+0/1) Accurately ripped\n 02     [d60441d1|3516febe] (1+0/1) Accurately ripped\n 03     [c6e3adb3|dd3fe65a] (1+0/1) Accurately ripped\n 04     [4605eaa9|f8aa4e99] (1+0/1) Accurately ripped\n 05     [8f5015c7|74caa058] (1+0/1) Accurately ripped\n 06     [58cc5820|40c9b1c7] (1+0/1) Accurately ripped\n 07     [45822e98|be8f38d8] (1+0/1) Accurately ripped\n 08     [11f351e0|b5ca195c] (1+0/1) Accurately ripped\n 09     [eecfb9ac|1186d70b] (1+0/1) Accurately ripped\n 10     [59b5aea9|1dcc4c56] (1+0/1) Accurately ripped\n 11     [fd92706a|4fff4077] (1+0/1) Accurately ripped\n 12     [17cf43bd|845e07d8] (1+0/1) Accurately ripped\n\n\nWavPack image with embedded log, cue and jpg.\n\nHighres scans included.\n\nTip : Use Foobar or Aimp3","torrent":{"xt":"urn:btih:86781db0fb62704f0713aa03fe20aecc539cb866","amp;dn":"VA-XMiX_Dance_Series_122-%28XD-122CD%29-2009-WAVPACK","amp;tr":["udp%3A%2F%2Ftracker.openbittorrent.com%3A80","udp%3A%2F%2Fopen.demonii.com%3A1337","udp%3A%2F%2Ftracker.coppersurfer.tk%3A6969","udp%3A%2F%2Fexodus.desync.com%3A6969"],"infoHash":"86781db0fb62704f0713aa03fe20aecc539cb866","infoHashBuffer":{"type":"Buffer","data":[134,120,29,176,251,98,112,79,7,19,170,3,254,32,174,204,83,156,184,102]},"announce":[],"urlList":[]}}